<?xml version="1.0" encoding="UTF-8" standalone="no"?>
<!-- Created with Inkscape (http://www.inkscape.org/) -->
<svg
   xmlns:dc="http://purl.org/dc/elements/1.1/"
   xmlns:cc="http://web.resource.org/cc/"
   xmlns:rdf="http://www.w3.org/1999/02/22-rdf-syntax-ns#"
   xmlns:svg="http://www.w3.org/2000/svg"
   xmlns="http://www.w3.org/2000/svg"
   xmlns:xlink="http://www.w3.org/1999/xlink"
   xmlns:sodipodi="http://sodipodi.sourceforge.net/DTD/sodipodi-0.dtd"
   xmlns:inkscape="http://www.inkscape.org/namespaces/inkscape"
   width="320"
   height="100"
   id="svg2"
   sodipodi:version="0.32"
   inkscape:version="0.45.1"
   version="1.0"
   sodipodi:docbase="/home/nils/src/yolanda/images"
   sodipodi:docname="yolanda.svg"
   inkscape:output_extension="org.inkscape.output.svg.inkscape"
   inkscape:export-filename="/var/www/yolanda/images/yolanda-big.png"
   inkscape:export-xdpi="90"
   inkscape:export-ydpi="90">
  <defs
     id="defs4">
    <linearGradient
       id="linearGradient9075">
      <stop
         id="stop9077"
         offset="0"
         style="stop-color:#e50000;stop-opacity:0;" />
      <stop
         id="stop9079"
         offset="1"
         style="stop-color:#e50000;stop-opacity:0.50196081;" />
    </linearGradient>
    <linearGradient
       id="linearGradient7080">
      <stop
         style="stop-color:#ffffff;stop-opacity:1;"
         offset="0"
         id="stop7082" />
      <stop
         style="stop-color:#ffffff;stop-opacity:0;"
         offset="1"
         id="stop7084" />
    </linearGradient>
    <linearGradient
       id="linearGradient7064">
      <stop
         style="stop-color:#ffffff;stop-opacity:1;"
         offset="0"
         id="stop7066" />
      <stop
         style="stop-color:#ffffff;stop-opacity:0;"
         offset="1"
         id="stop7068" />
    </linearGradient>
    <linearGradient
       id="linearGradient6062">
      <stop
         style="stop-color:#e50000;stop-opacity:1;"
         offset="0"
         id="stop6064" />
      <stop
         style="stop-color:#e50000;stop-opacity:0.50196081;"
         offset="1"
         id="stop6066" />
    </linearGradient>
    <linearGradient
       inkscape:collect="always"
       xlink:href="#linearGradient6062"
       id="linearGradient7098"
       gradientUnits="userSpaceOnUse"
       gradientTransform="matrix(1,0,0,-1,-73.849924,654.05043)"
       x1="316.16162"
       y1="471.04428"
       x2="316.16162"
       y2="530.05042" />
    <linearGradient
       inkscape:collect="always"
       xlink:href="#linearGradient7080"
       id="linearGradient7100"
       gradientUnits="userSpaceOnUse"
       x1="316.51855"
       y1="654.05359"
       x2="316.51855"
       y2="530.41675"
       gradientTransform="matrix(1,0,0,0.7803816,0,116.49861)" />
    <linearGradient
       inkscape:collect="always"
       xlink:href="#linearGradient6062"
       id="linearGradient4124"
       gradientUnits="userSpaceOnUse"
       x1="316.16162"
       y1="471.04428"
       x2="316.16162"
       y2="530.05042" />
    <linearGradient
       inkscape:collect="always"
       xlink:href="#linearGradient9075"
       id="linearGradient5109"
       gradientUnits="userSpaceOnUse"
       x1="316.16162"
       y1="433.17661"
       x2="316.16162"
       y2="530.05042" />
  </defs>
  <sodipodi:namedview
     id="base"
     pagecolor="#ffffff"
     bordercolor="#666666"
     borderopacity="1.0"
     gridtolerance="10000"
     guidetolerance="10"
     objecttolerance="50"
     inkscape:pageopacity="0"
     inkscape:pageshadow="2"
     inkscape:zoom="2.8"
     inkscape:cx="127.90037"
     inkscape:cy="36.977016"
     inkscape:document-units="px"
     inkscape:current-layer="layer1"
     inkscape:object-bbox="false"
     inkscape:object-points="false"
     inkscape:object-paths="false"
     inkscape:object-nodes="false"
     inkscape:window-width="1157"
     inkscape:window-height="638"
     inkscape:window-x="69"
     inkscape:window-y="75"
     width="320px"
     height="100px" />
  <metadata
     id="metadata7">
    <rdf:RDF>
      <cc:Work
         rdf:about="">
        <dc:format>image/svg+xml</dc:format>
        <dc:type
           rdf:resource="http://purl.org/dc/dcmitype/StillImage" />
      </cc:Work>
    </rdf:RDF>
  </metadata>
  <g
     inkscape:label="Layer 1"
     inkscape:groupmode="layer"
     id="layer1"
     transform="translate(-73.848951,-406.45967)">
    <g
       id="g4126"
       transform="matrix(0.7377671,0,0,0.7377671,19.365626,111.49689)">
      <path
         id="flowRoot2160"
         d="M 264.6875,406.5 C 253.90681,407.43073 245.72148,416.0794 239.34375,424.03125 C 232.3726,439.26592 230.45312,456.39913 226.12645,472.53286 C 224.64485,482.11739 220.36548,491.45956 220.46875,501.1875 C 220.70376,506.09746 225.27788,512.34074 230.65625,509.28125 C 239.17699,504.27671 246.99629,498.07042 255.125,492.375 C 254.5589,498.55435 254.70705,508.42263 262.3125,509.96875 C 270.97109,509.14886 277.35555,501.77752 284.56627,497.57858 C 286.95818,495.91469 284.26242,502.0911 284.625,504.09375 C 283.51859,508.78541 289.23671,511.87154 292.8125,508.8125 C 301.13444,503.84126 309.32035,498.44943 317.09375,492.59375 C 318.37889,484.84386 316.95522,481.92468 310.5,488.15625 C 307.50293,489.90323 304.29509,492.66061 301.1875,493.6875 C 302.36642,480.65145 306.45922,467.89361 309.625,455.125 C 310.73272,452.0576 319.20404,447.26958 312.375,447.15625 C 300.94145,444.88081 287.31411,442.23569 277.34375,449.9375 C 269.91467,454.17931 263.41624,460.28271 260.96875,468.71875 C 258.77907,474.31674 257.13467,480.15884 256.03125,486.0625 C 256.60116,481.67695 251.32289,487.53187 249.0625,488.15625 C 244.95774,490.01947 240.90113,494.48438 236.5,494.71875 C 234.75089,487.67461 238.78101,480.33878 239.61098,473.2742 C 244.29767,455.70068 247.21071,437.02808 254.15625,420.40625 C 256.91763,415.32811 263.98567,419.91349 267.534,418.40909 C 268.6743,414.95095 279.68889,408.10513 272.78125,407.40625 C 270.14196,406.7262 267.42186,406.32692 264.6875,406.5 z M 455.90625,406.65625 C 445.81531,407.80851 438.2575,415.94799 431.25,422.5625 C 425.21261,428.61321 424.50755,437.66202 422.1875,445.4375 C 412.67398,443.19327 404.82637,450.76792 397.6875,455.875 C 387.99187,463.79686 385.51635,477.19656 382.65625,488.8125 C 381.16658,495.83173 380.83802,506.08117 388.21875,509.84375 C 395.45826,509.96939 401.01375,503.49213 407,500.21875 C 411.50076,495.46591 410.45701,499.86822 410.28125,503.65625 C 409.63556,508.17064 414.75151,511.80129 418.59375,509.03125 C 427.61651,504.51756 435.90314,498.63565 444.125,492.84375 C 444.73311,487.72506 447.09788,480.10009 440.40625,486.375 C 435.61932,489.24065 430.68552,493.72364 425.71875,495.28125 C 426.18243,484.11892 430.05289,473.04321 432.10712,461.99606 C 436.12734,448.41308 437.0405,433.54034 444.25,421.1875 C 447.26845,416.56547 453.34685,418.23459 457.71875,419.53125 C 458.82827,415.36212 469.19584,407.09527 461.17104,407.04741 C 459.43479,406.70193 457.68475,406.52391 455.90625,406.65625 z M 174.34375,416.59375 C 161.77705,417.83845 155.22131,430.54941 149.24246,440.14288 C 145.8169,445.93062 142.7475,451.95271 139.71875,458 C 140.37531,445.34881 138.32056,429.01987 125.65625,422.78125 C 112.67226,417.76489 98.560819,425.71183 89.71875,434.84375 C 80.611455,443.73279 76.129249,457.9361 81.6875,469.90625 C 82.854338,477.50426 88.975187,469.08027 92.912598,467.71062 C 99.30576,466.2056 96.447358,461.3564 95.28125,457 C 92.220506,447.88665 95.750593,434.87784 106.625,433.46875 C 117.9214,432.23392 123.87384,444.72188 125.34375,453.96875 C 128.49005,469.42158 126.82577,485.96769 118.4375,499.5625 C 114.5089,508.18095 106.5346,515.45029 96.6875,515.40625 C 91.034458,515.97375 85.365223,515.2823 79.71875,514.96875 C 78.769695,519.4682 71.143231,527.81558 74.867481,529.64201 C 89.193055,530.6539 106.60652,530.74725 115.9375,518.0625 C 134.12814,494.01006 143.64447,464.53253 159.625,439.125 C 162.70331,433.59477 169.21702,429.30433 175.4375,432.8125 C 181.21072,435.60592 180.70089,424.34838 183.53623,420.65653 C 182.0039,417.74989 177.85137,416.08984 174.34375,416.59375 z M 202.625,444.96875 C 191.07804,446.9808 179.87343,453.43323 172.5604,462.64685 C 165.12287,473.33755 160.74436,487.29807 163.6875,500.25 C 166.12496,509.33301 177.41715,512.16003 185.1875,508.375 C 196.83738,503.68501 208.79502,496.35873 213.25,483.96875 C 216.86453,474.43903 220.95687,463.43001 217.40625,453.3125 C 214.94826,447.66762 208.74321,444.38552 202.625,444.96875 z M 339.28125,445 C 330.90598,448.08598 323.30625,452.93792 315.65625,457.3125 C 313.1195,464.19129 313.25704,467.73451 320.375,462.78125 C 322.32677,462.52019 326.26518,459.12045 327.3125,460.59375 C 324.69077,477.62746 318.77893,494.05409 314.78125,510.84375 C 319.69347,508.24824 326.74297,507.54307 330.4375,503.875 C 333.20833,492.84375 335.97917,481.8125 338.75,470.78125 C 344.76828,467.45048 350.97256,462.12983 357,460.21875 C 355.14615,474.58851 349.01732,488.38149 347.96875,502.84375 C 348.53929,506.2043 350.22817,512.97774 354.28125,509.59375 C 363.46958,504.72147 373.12095,499.11831 380.6875,492.1875 C 383.79706,484.31407 382.27285,482.47027 375.27843,487.92451 C 371.31995,489.64336 367.32355,493.38331 363.3125,494 C 362.71097,484.04712 367.67405,474.21916 369.67503,464.49845 C 370.26876,458.73734 374.94149,452.72818 372.90625,446.96875 C 368.86116,442.23107 362.0439,446.92891 358.03125,449.25 C 352.54764,452.6393 347.03571,455.97758 341.59375,459.4375 C 341.81126,455.06096 346.45702,448.68458 341.8125,445.375 C 341.0432,444.96364 340.13639,444.8335 339.28125,445 z M 481.78125,444.96875 C 471.6792,445.00516 463.552,452.31569 456.40625,458.625 C 448.97717,470.08615 445.39389,484.14902 445.09375,497.8125 C 444.75114,503.36133 448.36085,511.80561 455.1875,509.65625 C 462.85777,506.76171 469.11699,501.20696 475.90625,496.71875 C 475.22198,500.82503 472.49828,508.762 478.625,509.96875 C 485.43489,509.33306 490.48025,503.30762 496.40625,500.28125 C 500.69872,496.45044 509.03318,494.54822 507.375,487.4375 C 508.97018,479.62163 501.08609,488.90749 497.6875,490.0625 C 495.93624,490.70252 492.65916,494.20999 491.28125,493.40625 C 492.90296,480.23716 496.30007,466.95944 500.32875,454.30949 C 502.33051,451.0877 509.06909,446.81969 501.52439,446.93674 C 495.07022,445.43283 488.42638,444.70894 481.78125,444.96875 z M 285.15625,455.5625 C 288.57294,455.58902 291.85855,456.29096 295.21875,456.9375 C 292.39686,466.28867 290.53645,475.75927 288.15625,485.15625 C 282.68983,488.32672 277.68152,494.00482 271.40625,494.78125 C 268.20065,489.37553 271.04997,482.1142 271.96875,476.28125 C 274.47049,469.33926 275.93588,459.72051 283.0625,455.90625 C 283.7318,455.65041 284.44209,455.58011 285.15625,455.5625 z M 475.28125,455.5625 C 478.69794,455.58902 481.98355,456.29096 485.34375,456.9375 C 482.52186,466.28867 480.66145,475.75927 478.28125,485.15625 C 472.81483,488.32672 467.80652,494.00482 461.53125,494.78125 C 458.32565,489.37553 461.17497,482.1142 462.09375,476.28125 C 464.59549,469.33926 466.06088,459.72051 473.1875,455.90625 C 473.8568,455.65041 474.56709,455.58011 475.28125,455.5625 z M 196.375,455.6875 C 203.63563,456.31127 204.17547,465.77102 203.53125,471.28125 C 201.78705,481.17956 198.2586,492.17598 189.625,498.09375 C 184.67971,501.42599 178.35181,497.15531 178.125,491.59375 C 176.84527,478.94514 181.28685,464.26223 192.21875,456.84375 C 193.4785,456.13113 194.92376,455.70567 196.375,455.6875 z M 413.84375,455.6875 C 417.18783,455.69211 420.85448,458.61623 418.30976,462.18376 C 415.9752,470.36822 415.33846,479.69181 411.99293,487.19798 C 407.05916,489.95377 402.23464,495.37551 396.84375,496.125 C 394.80209,486.57078 398.2954,476.65269 401.53125,467.6875 C 403.87057,462.5819 407.36326,455.75458 413.84375,455.6875 z "
         style="font-size:144px;font-style:normal;font-weight:bold;writing-mode:lr-tb;fill:url(#linearGradient4124);fill-opacity:1;font-family:URW Chancery L" />
      <path
         sodipodi:type="arc"
         style="opacity:0.25;fill:#ffffff;fill-opacity:1;stroke:none;stroke-width:13.90299988;stroke-linecap:butt;stroke-linejoin:miter;stroke-miterlimit:4;stroke-dasharray:none;stroke-opacity:1"
         id="path3150"
         sodipodi:cx="202.85715"
         sodipodi:cy="3.8303571"
         sodipodi:rx="230.71428"
         sodipodi:ry="34.107143"
         d="M 433.57143 3.8303571 A 230.71428 34.107143 0 1 1  -27.857132,3.8303571 A 230.71428 34.107143 0 1 1  433.57143 3.8303571 z"
         transform="matrix(0.9399938,0,0,1.5549675,100.03448,402.90559)" />
    </g>
  </g>
</svg>
