<?xml version="1.0" encoding="UTF-8" standalone="no"?>
<!-- Created with Inkscape (http://www.inkscape.org/) -->
<svg
   xmlns:dc="http://purl.org/dc/elements/1.1/"
   xmlns:cc="http://web.resource.org/cc/"
   xmlns:rdf="http://www.w3.org/1999/02/22-rdf-syntax-ns#"
   xmlns:svg="http://www.w3.org/2000/svg"
   xmlns="http://www.w3.org/2000/svg"
   xmlns:xlink="http://www.w3.org/1999/xlink"
   xmlns:sodipodi="http://sodipodi.sourceforge.net/DTD/sodipodi-0.dtd"
   xmlns:inkscape="http://www.inkscape.org/namespaces/inkscape"
   width="473.23764"
   height="220.4375"
   id="svg2"
   sodipodi:version="0.32"
   inkscape:version="0.45.1"
   version="1.0"
   sodipodi:docbase="/var/www/gnutube/images"
   sodipodi:docname="yolanda.svg"
   inkscape:output_extension="org.inkscape.output.svg.inkscape"
   inkscape:export-filename="/var/www/gnutube/images/yolanda-big.png"
   inkscape:export-xdpi="90"
   inkscape:export-ydpi="90">
  <defs
     id="defs4">
    <linearGradient
       id="linearGradient9075">
      <stop
         id="stop9077"
         offset="0"
         style="stop-color:#e50000;stop-opacity:0;" />
      <stop
         id="stop9079"
         offset="1"
         style="stop-color:#e50000;stop-opacity:0.50196081;" />
    </linearGradient>
    <linearGradient
       id="linearGradient7080">
      <stop
         style="stop-color:#ffffff;stop-opacity:1;"
         offset="0"
         id="stop7082" />
      <stop
         style="stop-color:#ffffff;stop-opacity:0;"
         offset="1"
         id="stop7084" />
    </linearGradient>
    <linearGradient
       id="linearGradient7064">
      <stop
         style="stop-color:#ffffff;stop-opacity:1;"
         offset="0"
         id="stop7066" />
      <stop
         style="stop-color:#ffffff;stop-opacity:0;"
         offset="1"
         id="stop7068" />
    </linearGradient>
    <linearGradient
       id="linearGradient6062">
      <stop
         style="stop-color:#e50000;stop-opacity:1;"
         offset="0"
         id="stop6064" />
      <stop
         style="stop-color:#e50000;stop-opacity:0.50196081;"
         offset="1"
         id="stop6066" />
    </linearGradient>
    <linearGradient
       inkscape:collect="always"
       xlink:href="#linearGradient6062"
       id="linearGradient7096"
       gradientUnits="userSpaceOnUse"
       x1="316.16162"
       y1="471.04428"
       x2="316.16162"
       y2="530.05042" />
    <linearGradient
       inkscape:collect="always"
       xlink:href="#linearGradient6062"
       id="linearGradient7098"
       gradientUnits="userSpaceOnUse"
       gradientTransform="matrix(1,0,0,-1,-73.849924,654.05043)"
       x1="316.16162"
       y1="471.04428"
       x2="316.16162"
       y2="530.05042" />
    <linearGradient
       inkscape:collect="always"
       xlink:href="#linearGradient7080"
       id="linearGradient7100"
       gradientUnits="userSpaceOnUse"
       x1="316.51855"
       y1="654.05359"
       x2="316.51855"
       y2="530.41675"
       gradientTransform="matrix(1,0,0,0.7803816,0,116.49861)" />
    <linearGradient
       inkscape:collect="always"
       xlink:href="#linearGradient9075"
       id="linearGradient9073"
       gradientUnits="userSpaceOnUse"
       gradientTransform="matrix(1,0,0,-1,-73.849924,654.05043)"
       x1="316.16162"
       y1="433.61292"
       x2="316.16162"
       y2="530.05042" />
  </defs>
  <sodipodi:namedview
     id="base"
     pagecolor="#ffffff"
     bordercolor="#666666"
     borderopacity="1.0"
     gridtolerance="10000"
     guidetolerance="10"
     objecttolerance="50"
     inkscape:pageopacity="0.0"
     inkscape:pageshadow="2"
     inkscape:zoom="2.8"
     inkscape:cx="289.32894"
     inkscape:cy="116.79945"
     inkscape:document-units="px"
     inkscape:current-layer="layer1"
     inkscape:object-bbox="false"
     inkscape:object-points="false"
     inkscape:object-paths="false"
     inkscape:object-nodes="false"
     inkscape:window-width="1920"
     inkscape:window-height="1130"
     inkscape:window-x="0"
     inkscape:window-y="25" />
  <metadata
     id="metadata7">
    <rdf:RDF>
      <cc:Work
         rdf:about="">
        <dc:format>image/svg+xml</dc:format>
        <dc:type
           rdf:resource="http://purl.org/dc/dcmitype/StillImage" />
      </cc:Work>
    </rdf:RDF>
  </metadata>
  <g
     inkscape:label="Layer 1"
     inkscape:groupmode="layer"
     id="layer1"
     transform="translate(-73.848951,-406.45967)">
    <g
       id="g6077">
      <path
         id="flowRoot2160"
         d="M 264.6875,406.5 C 253.90681,407.43073 245.72148,416.0794 239.34375,424.03125 C 232.3726,439.26592 230.45312,456.39913 226.12645,472.53286 C 224.64485,482.11739 220.36548,491.45956 220.46875,501.1875 C 220.70376,506.09746 225.27788,512.34074 230.65625,509.28125 C 239.17699,504.27671 246.99629,498.07042 255.125,492.375 C 254.5589,498.55435 254.70705,508.42263 262.3125,509.96875 C 270.97109,509.14886 277.35555,501.77752 284.56627,497.57858 C 286.95818,495.91469 284.26242,502.0911 284.625,504.09375 C 283.51859,508.78541 289.23671,511.87154 292.8125,508.8125 C 301.13444,503.84126 309.32035,498.44943 317.09375,492.59375 C 318.37889,484.84386 316.95522,481.92468 310.5,488.15625 C 307.50293,489.90323 304.29509,492.66061 301.1875,493.6875 C 302.36642,480.65145 306.45922,467.89361 309.625,455.125 C 310.73272,452.0576 319.20404,447.26958 312.375,447.15625 C 300.94145,444.88081 287.31411,442.23569 277.34375,449.9375 C 269.91467,454.17931 263.41624,460.28271 260.96875,468.71875 C 258.77907,474.31674 257.13467,480.15884 256.03125,486.0625 C 256.60116,481.67695 251.32289,487.53187 249.0625,488.15625 C 244.95774,490.01947 240.90113,494.48438 236.5,494.71875 C 234.75089,487.67461 238.78101,480.33878 239.61098,473.2742 C 244.29767,455.70068 247.21071,437.02808 254.15625,420.40625 C 256.91763,415.32811 263.98567,419.91349 267.534,418.40909 C 268.6743,414.95095 279.68889,408.10513 272.78125,407.40625 C 270.14196,406.7262 267.42186,406.32692 264.6875,406.5 z M 455.90625,406.65625 C 445.81531,407.80851 438.2575,415.94799 431.25,422.5625 C 425.21261,428.61321 424.50755,437.66202 422.1875,445.4375 C 412.67398,443.19327 404.82637,450.76792 397.6875,455.875 C 387.99187,463.79686 385.51635,477.19656 382.65625,488.8125 C 381.16658,495.83173 380.83802,506.08117 388.21875,509.84375 C 395.45826,509.96939 401.01375,503.49213 407,500.21875 C 411.50076,495.46591 410.45701,499.86822 410.28125,503.65625 C 409.63556,508.17064 414.75151,511.80129 418.59375,509.03125 C 427.61651,504.51756 435.90314,498.63565 444.125,492.84375 C 444.73311,487.72506 447.09788,480.10009 440.40625,486.375 C 435.61932,489.24065 430.68552,493.72364 425.71875,495.28125 C 426.18243,484.11892 430.05289,473.04321 432.10712,461.99606 C 436.12734,448.41308 437.0405,433.54034 444.25,421.1875 C 447.26845,416.56547 453.34685,418.23459 457.71875,419.53125 C 458.82827,415.36212 469.19584,407.09527 461.17104,407.04741 C 459.43479,406.70193 457.68475,406.52391 455.90625,406.65625 z M 174.34375,416.59375 C 161.77705,417.83845 155.22131,430.54941 149.24246,440.14288 C 145.8169,445.93062 142.7475,451.95271 139.71875,458 C 140.37531,445.34881 138.32056,429.01987 125.65625,422.78125 C 112.67226,417.76489 98.560819,425.71183 89.71875,434.84375 C 80.611455,443.73279 76.129249,457.9361 81.6875,469.90625 C 82.854338,477.50426 88.975187,469.08027 92.912598,467.71062 C 99.30576,466.2056 96.447358,461.3564 95.28125,457 C 92.220506,447.88665 95.750593,434.87784 106.625,433.46875 C 117.9214,432.23392 123.87384,444.72188 125.34375,453.96875 C 128.49005,469.42158 126.82577,485.96769 118.4375,499.5625 C 114.5089,508.18095 106.5346,515.45029 96.6875,515.40625 C 91.034458,515.97375 85.365223,515.2823 79.71875,514.96875 C 78.769695,519.4682 71.143231,527.81558 74.867481,529.64201 C 89.193055,530.6539 106.60652,530.74725 115.9375,518.0625 C 134.12814,494.01006 143.64447,464.53253 159.625,439.125 C 162.70331,433.59477 169.21702,429.30433 175.4375,432.8125 C 181.21072,435.60592 180.70089,424.34838 183.53623,420.65653 C 182.0039,417.74989 177.85137,416.08984 174.34375,416.59375 z M 202.625,444.96875 C 191.07804,446.9808 179.87343,453.43323 172.5604,462.64685 C 165.12287,473.33755 160.74436,487.29807 163.6875,500.25 C 166.12496,509.33301 177.41715,512.16003 185.1875,508.375 C 196.83738,503.68501 208.79502,496.35873 213.25,483.96875 C 216.86453,474.43903 220.95687,463.43001 217.40625,453.3125 C 214.94826,447.66762 208.74321,444.38552 202.625,444.96875 z M 339.28125,445 C 330.90598,448.08598 323.30625,452.93792 315.65625,457.3125 C 313.1195,464.19129 313.25704,467.73451 320.375,462.78125 C 322.32677,462.52019 326.26518,459.12045 327.3125,460.59375 C 324.69077,477.62746 318.77893,494.05409 314.78125,510.84375 C 319.69347,508.24824 326.74297,507.54307 330.4375,503.875 C 333.20833,492.84375 335.97917,481.8125 338.75,470.78125 C 344.76828,467.45048 350.97256,462.12983 357,460.21875 C 355.14615,474.58851 349.01732,488.38149 347.96875,502.84375 C 348.53929,506.2043 350.22817,512.97774 354.28125,509.59375 C 363.46958,504.72147 373.12095,499.11831 380.6875,492.1875 C 383.79706,484.31407 382.27285,482.47027 375.27843,487.92451 C 371.31995,489.64336 367.32355,493.38331 363.3125,494 C 362.71097,484.04712 367.67405,474.21916 369.67503,464.49845 C 370.26876,458.73734 374.94149,452.72818 372.90625,446.96875 C 368.86116,442.23107 362.0439,446.92891 358.03125,449.25 C 352.54764,452.6393 347.03571,455.97758 341.59375,459.4375 C 341.81126,455.06096 346.45702,448.68458 341.8125,445.375 C 341.0432,444.96364 340.13639,444.8335 339.28125,445 z M 481.78125,444.96875 C 471.6792,445.00516 463.552,452.31569 456.40625,458.625 C 448.97717,470.08615 445.39389,484.14902 445.09375,497.8125 C 444.75114,503.36133 448.36085,511.80561 455.1875,509.65625 C 462.85777,506.76171 469.11699,501.20696 475.90625,496.71875 C 475.22198,500.82503 472.49828,508.762 478.625,509.96875 C 485.43489,509.33306 490.48025,503.30762 496.40625,500.28125 C 500.69872,496.45044 509.03318,494.54822 507.375,487.4375 C 508.97018,479.62163 501.08609,488.90749 497.6875,490.0625 C 495.93624,490.70252 492.65916,494.20999 491.28125,493.40625 C 492.90296,480.23716 496.30007,466.95944 500.32875,454.30949 C 502.33051,451.0877 509.06909,446.81969 501.52439,446.93674 C 495.07022,445.43283 488.42638,444.70894 481.78125,444.96875 z M 285.15625,455.5625 C 288.57294,455.58902 291.85855,456.29096 295.21875,456.9375 C 292.39686,466.28867 290.53645,475.75927 288.15625,485.15625 C 282.68983,488.32672 277.68152,494.00482 271.40625,494.78125 C 268.20065,489.37553 271.04997,482.1142 271.96875,476.28125 C 274.47049,469.33926 275.93588,459.72051 283.0625,455.90625 C 283.7318,455.65041 284.44209,455.58011 285.15625,455.5625 z M 475.28125,455.5625 C 478.69794,455.58902 481.98355,456.29096 485.34375,456.9375 C 482.52186,466.28867 480.66145,475.75927 478.28125,485.15625 C 472.81483,488.32672 467.80652,494.00482 461.53125,494.78125 C 458.32565,489.37553 461.17497,482.1142 462.09375,476.28125 C 464.59549,469.33926 466.06088,459.72051 473.1875,455.90625 C 473.8568,455.65041 474.56709,455.58011 475.28125,455.5625 z M 196.375,455.6875 C 203.63563,456.31127 204.17547,465.77102 203.53125,471.28125 C 201.78705,481.17956 198.2586,492.17598 189.625,498.09375 C 184.67971,501.42599 178.35181,497.15531 178.125,491.59375 C 176.84527,478.94514 181.28685,464.26223 192.21875,456.84375 C 193.4785,456.13113 194.92376,455.70567 196.375,455.6875 z M 413.84375,455.6875 C 417.18783,455.69211 420.85448,458.61623 418.30976,462.18376 C 415.9752,470.36822 415.33846,479.69181 411.99293,487.19798 C 407.05916,489.95377 402.23464,495.37551 396.84375,496.125 C 394.80209,486.57078 398.2954,476.65269 401.53125,467.6875 C 403.87057,462.5819 407.36326,455.75458 413.84375,455.6875 z "
         style="font-size:144px;font-style:normal;font-weight:bold;writing-mode:lr-tb;fill:url(#linearGradient7096);fill-opacity:1;font-family:URW Chancery L" />
      <path
         id="path4122"
         d="M 265.71875,406.46875 C 265.37753,406.47307 265.02929,406.47836 264.6875,406.5 C 253.90681,407.43073 245.72148,416.0794 239.34375,424.03125 C 234.30523,435.04236 231.88934,447.03702 229.3125,458.9375 C 233.7988,459.20016 238.33315,459.45522 242.9375,459.65625 C 246.03544,446.30283 248.98336,432.78585 254.15625,420.40625 C 256.91763,415.32811 263.98292,419.91065 267.53125,418.40625 C 268.67155,414.94811 279.68889,408.10513 272.78125,407.40625 C 270.47187,406.81121 268.10729,406.43852 265.71875,406.46875 z M 457.25,406.625 C 456.8087,406.62152 456.35088,406.62316 455.90625,406.65625 C 445.81531,407.80851 438.2575,415.94799 431.25,422.5625 C 425.21261,428.61321 424.50755,437.66202 422.1875,445.4375 C 414.09162,443.52769 407.21042,448.72904 400.9375,453.46875 C 413.51027,451.75271 425.11286,449.75349 435.5625,447.53125 C 437.51772,438.38307 439.54551,429.24823 444.25,421.1875 C 447.26845,416.56547 453.34685,418.23459 457.71875,419.53125 C 458.82827,415.36212 469.18105,407.11036 461.15625,407.0625 C 459.85405,406.80338 458.57389,406.63543 457.25,406.625 z M 175.6875,416.5 C 175.23527,416.49716 174.7822,416.53076 174.34375,416.59375 C 161.77705,417.83845 155.22885,430.56278 149.25,440.15625 C 147.52543,443.07004 145.89679,446.02535 144.3125,449.03125 C 147.12143,449.57227 149.98566,450.08512 152.9375,450.59375 C 155.06106,446.70132 157.26893,442.87092 159.625,439.125 C 162.70331,433.59477 169.21702,429.30433 175.4375,432.8125 C 181.21072,435.60592 180.69591,424.3481 183.53125,420.65625 C 182.19047,418.11294 178.8531,416.5199 175.6875,416.5 z M 117.03125,421.21875 C 107.70413,421.28353 98.532845,426.57551 91.75,432.875 C 94.097485,434.16051 96.739008,435.43297 99.65625,436.65625 C 101.50168,435.00064 103.8047,433.8342 106.625,433.46875 C 114.06811,432.65513 119.16927,437.81345 122.21875,444.0625 C 127.60846,445.48757 133.38468,446.8209 139.59375,448.09375 C 138.70807,437.85144 135.17372,427.46969 125.65625,422.78125 C 122.816,421.68392 119.91244,421.19874 117.03125,421.21875 z M 294.3125,444.8125 C 288.23018,444.82952 282.32893,446.08659 277.34375,449.9375 C 272.64211,452.62201 268.32146,456.04861 265.15625,460.34375 C 269.44158,460.43274 273.76704,460.49671 278.125,460.53125 C 279.40658,458.64162 280.9839,457.01874 283.0625,455.90625 C 283.7318,455.65041 284.44209,455.58011 285.15625,455.5625 C 288.57294,455.58902 291.85855,456.29096 295.21875,456.9375 C 294.85649,458.13795 294.48995,459.32727 294.15625,460.53125 C 298.90742,460.49461 303.61664,460.41377 308.28125,460.3125 C 308.73525,458.57998 309.19553,456.8572 309.625,455.125 C 310.73272,452.0576 319.20404,447.26958 312.375,447.15625 C 306.65823,446.01853 300.39482,444.79548 294.3125,444.8125 z M 203.78125,444.90625 C 203.39912,444.91287 203.00739,444.9323 202.625,444.96875 C 194.8004,446.33218 187.12457,449.73739 180.71875,454.65625 C 185.00651,455.17769 189.39653,455.6666 193.875,456.125 C 194.68185,455.86106 195.52844,455.6981 196.375,455.6875 C 197.56731,455.78993 198.58315,456.13388 199.4375,456.65625 C 205.65666,457.24594 212.03038,457.78678 218.5625,458.25 C 218.35271,456.59165 217.97557,454.93478 217.40625,453.3125 C 215.10188,448.02043 209.51321,444.80694 203.78125,444.90625 z M 339.9375,444.9375 C 339.72021,444.94229 339.49504,444.95837 339.28125,445 C 330.90598,448.08598 323.30625,452.93792 315.65625,457.3125 C 315.27402,458.34897 314.96482,459.28889 314.71875,460.15625 C 323.89514,459.89727 332.87054,459.52851 341.625,459.03125 C 342.08158,454.67402 346.31778,448.58536 341.8125,445.375 C 341.23552,445.06648 340.58936,444.92314 339.9375,444.9375 z M 368.46875,444.9375 C 364.871,444.94161 360.78995,447.65425 358.03125,449.25 C 352.798,452.48456 347.54315,455.67705 342.34375,458.96875 C 352.54011,458.38139 362.4076,457.66737 371.90625,456.78125 C 373.0801,453.48528 374.0465,450.19548 372.90625,446.96875 C 371.64216,445.48822 370.10409,444.93563 368.46875,444.9375 z "
         style="opacity:0.28409095;fill:#ffffff;fill-opacity:1;stroke:none;stroke-width:13.90299988;stroke-linecap:butt;stroke-linejoin:miter;stroke-miterlimit:4;stroke-dasharray:none;stroke-opacity:1" />
    </g>
    <g
       id="g7091">
      <path
         style="font-size:144px;font-style:normal;font-weight:bold;writing-mode:lr-tb;fill:url(#linearGradient9073);fill-opacity:1;font-family:URW Chancery L"
         d="M 9.3125,124 C 6.4829704,124.04697 3.7172951,124.21652 1.03125,124.40625 C 0.33295313,124.74871 0.019037516,125.32989 0,126.0625 C -0.082495903,129.23714 5.1038929,135.43794 5.875,139.09375 C 11.521473,138.7802 17.190709,138.08874 22.84375,138.65625 C 32.69085,138.61221 40.665149,145.88154 44.59375,154.5 C 52.98202,168.09481 54.646299,184.64091 51.5,200.09375 C 50.213829,208.18476 45.477135,218.74804 36.75,220.4375 L 62.125,220.4375 C 65.643501,213.06384 66.280275,203.87171 65.875,196.0625 C 68.90375,202.10979 71.980687,208.11851 75.40625,213.90625 C 76.701513,215.98459 78.032835,218.21482 79.4375,220.4375 L 90.71875,220.4375 C 88.698686,219.04731 86.979803,217.09072 85.78125,214.9375 C 69.80072,189.52997 60.284389,160.05243 42.09375,136 C 35.095515,126.48644 23.534778,124.14145 12.15625,124 L 9.3125,124 z M 240.9375,143.21875 C 244.93518,160.00841 250.84703,176.43503 253.46875,193.46875 C 252.42143,194.94205 248.48303,191.5423 246.53125,191.28125 C 239.41329,186.32799 239.27576,189.8712 241.8125,196.75 C 249.4625,201.12458 257.06222,205.97651 265.4375,209.0625 C 266.29264,209.229 267.19944,209.09885 267.96875,208.6875 C 272.61327,205.37792 267.9675,199.00153 267.75,194.625 C 273.19196,198.08492 278.70388,201.42319 284.1875,204.8125 C 288.20015,207.13359 295.0174,211.83142 299.0625,207.09375 C 301.09774,201.33432 296.40623,195.32361 295.8125,189.5625 C 293.81152,179.84179 288.86721,170.01537 289.46875,160.0625 C 293.4798,160.67919 297.47903,164.40615 301.4375,166.125 C 308.43192,171.57924 309.9533,169.74842 306.84375,161.875 C 299.2772,154.94419 289.62582,149.34102 280.4375,144.46875 C 276.38442,141.08476 274.69553,147.85819 274.125,151.21875 C 275.17357,165.68101 281.30239,179.47398 283.15625,193.84375 C 277.12881,191.93267 270.92452,186.61201 264.90625,183.28125 C 262.13542,172.25 259.36457,161.21874 256.59375,150.1875 C 252.89922,146.51943 245.84973,145.81425 240.9375,143.21875 z M 153.875,143.96875 C 149.85109,144.01354 146.81595,148.88565 146.625,152.875 C 146.52173,162.60294 150.79966,171.94672 152.28125,181.53125 C 155.72038,194.35544 157.638,207.80575 161.78125,220.4375 L 175.625,220.4375 C 171.72661,207.4711 169.22854,193.82461 165.75,180.78125 C 164.92003,173.71667 160.90715,166.38788 162.65625,159.34375 C 167.05738,159.57812 171.114,164.04302 175.21875,165.90625 C 177.47914,166.53063 182.75742,172.38554 182.1875,168 C 183.29092,173.90366 184.93533,179.74575 187.125,185.34375 C 189.57249,193.77979 196.07093,199.88318 203.5,204.125 C 213.47036,211.82681 227.09771,209.18168 238.53125,206.90625 C 245.36029,206.79292 236.88898,202.00489 235.78125,198.9375 C 232.61547,186.16889 228.52268,173.41104 227.34375,160.375 C 230.45134,161.40189 233.65919,164.15926 236.65625,165.90625 C 243.11147,172.13782 244.53515,169.21863 243.25,161.46875 C 235.4766,155.61307 227.2907,150.22123 218.96875,145.25 C 215.39296,142.19096 209.67485,145.27708 210.78125,149.96875 C 210.41867,151.9714 213.11067,158.13264 210.71875,156.46875 C 203.50803,152.26981 197.12735,144.91363 188.46875,144.09375 C 180.8633,145.63987 180.71516,155.50814 181.28125,161.6875 C 173.15254,155.99208 165.33325,149.78578 156.8125,144.78125 C 155.80406,144.2076 154.80359,143.95841 153.875,143.96875 z M 103.40625,144.0625 C 97.38179,144.2775 91.519503,147.56793 89.84375,153.8125 C 86.90061,166.76443 91.281217,180.71555 98.71875,191.40625 C 106.03178,200.61987 117.2343,207.08169 128.78125,209.09375 C 134.89946,209.67698 141.10452,206.39487 143.5625,200.75 C 147.11312,190.63249 143.02079,179.62346 139.40625,170.09375 C 134.95127,157.70377 122.99363,150.37748 111.34375,145.6875 C 108.91552,144.50468 106.14464,143.96477 103.40625,144.0625 z M 341.71875,144.0625 C 338.68921,144.12662 335.95323,147.02045 336.4375,150.40625 C 336.61326,154.19428 337.657,158.59658 333.15625,153.84375 C 327.17,150.57037 321.6145,144.0931 314.375,144.21875 C 306.99427,147.98133 307.32282,158.23076 308.8125,165.25 C 311.6726,176.86594 314.14811,190.26563 323.84375,198.1875 C 330.98262,203.29458 338.83022,210.86922 348.34375,208.625 C 349.4798,212.43241 350.22898,216.52098 351.40625,220.4375 L 365.125,220.4375 C 362.28914,211.18053 360.99249,201.32846 358.25,192.0625 C 356.19577,181.01535 352.33867,169.94357 351.875,158.78125 C 356.84177,160.33886 361.77556,164.82184 366.5625,167.6875 C 373.25413,173.96241 370.88935,166.33743 370.28125,161.21875 C 362.05939,155.42685 353.77275,149.54493 344.75,145.03125 C 343.78944,144.33874 342.7286,144.04113 341.71875,144.0625 z M 378.9375,144.0625 C 373.67794,144.31475 370.95021,151.39477 371.25,156.25 C 371.55014,169.91348 375.13341,183.97634 382.5625,195.4375 C 389.70825,201.74681 397.83544,209.05733 407.9375,209.09375 C 414.58263,209.35356 421.23333,208.62892 427.6875,207.125 C 435.2322,207.24205 428.47052,202.97179 426.46875,199.75 C 422.44007,187.10005 419.0592,173.82533 417.4375,160.65625 C 418.81541,159.85251 422.09248,163.35997 423.84375,164 C 427.24234,165.15501 435.12642,174.44086 433.53125,166.625 C 433.6867,165.95837 433.75863,165.33096 433.75,164.75 C 433.66654,159.1341 426.45254,157.25292 422.5625,153.78125 C 416.6365,150.75488 411.59113,144.72943 404.78125,144.09375 C 398.65453,145.3005 401.37822,153.23746 402.0625,157.34375 C 395.27324,152.85554 389.01401,147.30078 381.34375,144.40625 C 380.49042,144.13758 379.68887,144.02646 378.9375,144.0625 z M 111.9375,154.78125 C 113.22972,154.76257 114.54493,155.13569 115.78125,155.96875 C 124.41485,161.88652 127.94331,172.88293 129.6875,182.78125 C 130.33172,188.29148 129.79188,197.75122 122.53125,198.375 C 121.08001,198.35683 119.63475,197.93136 118.375,197.21875 C 107.4431,189.80027 103.00152,175.11735 104.28125,162.46875 C 104.45136,158.29758 108.06085,154.83729 111.9375,154.78125 z M 323,157.9375 C 328.39089,158.68699 333.22248,164.08796 338.15625,166.84375 C 341.50178,174.34992 342.13419,183.69054 344.46875,191.875 C 347.01347,195.44253 343.34407,198.37038 340,198.375 C 333.51951,198.30792 330.02681,191.48059 327.6875,186.375 C 324.45165,177.40981 320.95833,167.49171 323,157.9375 z M 197.5625,159.28125 C 203.83777,160.05768 208.84609,165.73577 214.3125,168.90625 C 216.6927,178.30323 218.55312,187.77382 221.375,197.125 C 218.0148,197.77154 214.7292,198.47347 211.3125,198.5 C 210.59834,198.48239 209.88806,198.41208 209.21875,198.15625 C 202.09213,194.34199 200.62675,184.72323 198.125,177.78125 C 197.20622,171.9483 194.35691,164.68696 197.5625,159.28125 z M 387.6875,159.28125 C 393.96277,160.05768 398.97107,165.73577 404.4375,168.90625 C 406.8177,178.30323 408.6781,187.77382 411.5,197.125 C 408.1398,197.77154 404.85418,198.47347 401.4375,198.5 C 400.72334,198.48239 400.01304,198.41208 399.34375,198.15625 C 392.21713,194.34199 390.75173,184.72323 388.25,177.78125 C 387.33122,171.9483 384.48189,164.68696 387.6875,159.28125 z M 10.15625,181 C 9.0418505,180.94932 8.2083869,181.78187 7.84375,184.15625 C 2.285499,196.1264 6.7677046,210.3297 15.875,219.21875 C 16.275542,219.63242 16.703426,220.02979 17.125,220.4375 L 31.9375,220.4375 C 21.726123,218.4807 18.457426,205.93565 21.4375,197.0625 C 22.603608,192.7061 25.455663,187.84878 19.0625,186.34375 C 16.35553,185.40212 12.607929,181.11151 10.15625,181 z "
         transform="translate(73.849924,406.45967)"
         id="path6083" />
      <path
         style="opacity:0.28409095;fill:#ffffff;fill-opacity:1;stroke:none;stroke-width:13.90299988;stroke-linecap:butt;stroke-linejoin:miter;stroke-miterlimit:4;stroke-opacity:1"
         d="M 204.28125,193.53125 C 199.92329,193.56579 195.59784,193.62975 191.3125,193.71875 C 194.47771,198.01389 198.79837,201.44048 203.5,204.125 C 208.48518,207.97591 214.38644,209.23297 220.46875,209.25 C 226.55107,209.26702 232.81449,208.04396 238.53125,206.90625 C 245.36029,206.79292 236.88898,202.00489 235.78125,198.9375 C 235.35178,197.2053 234.89151,195.48251 234.4375,193.75 C 229.77289,193.64873 225.06368,193.56788 220.3125,193.53125 C 220.6462,194.73523 221.01275,195.92454 221.375,197.125 C 218.0148,197.77154 214.7292,198.47347 211.3125,198.5 C 210.59834,198.48239 209.88806,198.41208 209.21875,198.15625 C 207.14015,197.04376 205.56284,195.42087 204.28125,193.53125 z M 240.875,193.90625 C 241.12107,194.77361 241.43028,195.71352 241.8125,196.75 C 249.4625,201.12458 257.06222,205.97651 265.4375,209.0625 C 265.65129,209.10413 265.87645,209.1202 266.09375,209.125 C 266.74561,209.13936 267.39176,208.99601 267.96875,208.6875 C 272.47403,205.47714 268.23782,199.38847 267.78125,195.03125 C 259.02679,194.53399 250.0514,194.16522 240.875,193.90625 z M 169.09375,194.40625 C 164.4894,194.60728 159.95506,194.86233 155.46875,195.125 C 157.31488,203.65089 159.07674,212.21124 161.78125,220.4375 L 175.65625,220.4375 C 173.09419,211.92837 171.1198,203.13936 169.09375,194.40625 z M 268.5,195.09375 C 273.6994,198.38545 278.95424,201.57793 284.1875,204.8125 C 286.9462,206.40825 291.02724,209.12088 294.625,209.125 C 296.26034,209.12687 297.7984,208.57427 299.0625,207.09375 C 300.20275,203.86702 299.23634,200.57721 298.0625,197.28125 C 288.56385,196.39513 278.69635,195.6811 268.5,195.09375 z M 144.71875,195.8125 C 138.18663,196.27572 131.81291,196.81655 125.59375,197.40625 C 124.7394,197.92862 123.72356,198.27256 122.53125,198.375 C 121.68469,198.3644 120.8381,198.20143 120.03125,197.9375 C 115.55278,198.3959 111.16276,198.8848 106.875,199.40625 C 113.28082,204.32511 120.95666,207.73031 128.78125,209.09375 C 129.16364,209.1302 129.55538,209.14962 129.9375,209.15625 C 135.66946,209.25556 141.25814,206.04206 143.5625,200.75 C 144.13182,199.12772 144.50897,197.47084 144.71875,195.8125 z M 327.09375,200.59375 C 333.36667,205.33346 340.24786,210.5348 348.34375,208.625 C 349.4798,212.43241 350.22898,216.52098 351.40625,220.4375 L 365.15625,220.4375 C 363.7629,215.89361 362.72203,211.22548 361.71875,206.53125 C 351.26911,204.30901 339.66651,202.30978 327.09375,200.59375 z M 79.09375,203.46875 C 76.14191,203.97738 73.277679,204.49022 70.46875,205.03125 C 72.05304,208.03715 73.681679,210.99245 75.40625,213.90625 C 76.704754,215.98979 78.029463,218.20828 79.4375,220.4375 L 90.71875,220.4375 C 88.698686,219.04731 86.979803,217.09072 85.78125,214.9375 C 83.42518,211.19158 81.217309,207.36117 79.09375,203.46875 z M 65.75,205.96875 C 59.54093,207.2416 53.764709,208.57492 48.375,210 C 45.897298,215.07735 42.061005,219.41842 36.71875,220.4375 L 62.125,220.4375 C 64.228345,216.03418 65.315476,210.99373 65.75,205.96875 z M 25.8125,217.40625 C 23.460832,218.39237 21.296225,219.40639 19.3125,220.4375 L 31.9375,220.4375 C 29.500286,219.96522 27.469082,218.89243 25.8125,217.40625 z "
         transform="translate(73.849924,406.45967)"
         id="path6085" />
    </g>
    <text
       xml:space="preserve"
       style="font-size:28.45923805px;font-style:normal;font-weight:normal;fill:#666666;fill-opacity:1;stroke:none;stroke-width:1px;stroke-linecap:butt;stroke-linejoin:miter;stroke-opacity:1;font-family:Bitstream Vera Sans"
       x="452.15411"
       y="450.49475"
       id="text7102"
       transform="scale(1.0438982,0.9579479)"
       inkscape:export-xdpi="90"
       inkscape:export-ydpi="90"><tspan
         sodipodi:role="line"
         id="tspan7104"
         x="452.15411"
         y="450.49475">BETA</tspan></text>
  </g>
</svg>
